<svg xmlns="http://www.w3.org/2000/svg" width="512" height="512" style="overflow: visible;" viewBox="0 0 512 512" data-svgdocument="" id="_zOxWbdYTk3MajoFub6IFm" class="fl-svgdocument" x="0" y="0" xmlns:xlink="http://www.w3.org/1999/xlink"><rect data-uid="o_emk94ih69_4" data-fl-background="" x="0" y="0" width="512" height="512" fill="#f1f1f1"></rect><defs id="_JQI80HCC8MT6nLGawT_Dt" transform="matrix(0.9686217904090881, 0, 0, 0.9686217904090881, -117.03290557861328, 30.944246292114258)" data-uid="o_emk94ih69_5"></defs><path text="speed info" text-anchor="middle" font-size="100" letter-spacing="0" side="left" offset="0.5" dx="0" dy="0" space="preserve" href="" font-family="Teko" font-scale="contain" transform="matrix(1.3874475955963135, 0, 0, 1.3874475955963135, 253.29446411132812, 357.9990234375)" x="0" y="0" fill="#076cf3" data-fl-textpath="" id="_roHAh7wUbk1G41yQJhl1q" font-weight="400" font-style="normal" data-uid="o_emk94ih69_6" d="M-131.70000000000002-9.8L-131.70000000000002-9.8L-131.70000000000002-17.9Q-131.70000000000002-19.7 -132.3-20.25Q-132.9-20.8 -134.70000000000002-20.8L-134.70000000000002-20.8L-139.8-20.8Q-149.1-20.8 -149.1-29.6L-149.1-29.6L-149.1-39.9Q-149.1-48.8 -139.8-48.8L-139.8-48.8L-132.5-48.8Q-123.10000000000001-48.8 -123.10000000000001-39.9L-123.10000000000001-39.9L-123.10000000000001-35.2L-131.9-35.2L-131.9-39Q-131.9-40.8 -132.5-41.35Q-133.1-41.9 -134.9-41.9L-134.9-41.9L-137.3-41.9Q-139.1-41.9 -139.70000000000002-41.35Q-140.3-40.8 -140.3-39L-140.3-39L-140.3-30.6Q-140.3-28.8 -139.70000000000002-28.25Q-139.1-27.7 -137.3-27.7L-137.3-27.7L-132.1-27.7Q-122.9-27.7 -122.9-18.8L-122.9-18.8L-122.9-8.8Q-122.9 0 -132.20000000000002 0L-132.20000000000002 0L-139.6 0Q-148.9 0 -148.9-8.8L-148.9-8.8L-148.9-13.6L-140.1-13.6L-140.1-9.8Q-140.1-8 -139.5-7.45Q-138.9-6.9 -137.1-6.9L-137.1-6.9L-134.70000000000002-6.9Q-132.9-6.9 -132.3-7.45Q-131.70000000000002-8 -131.70000000000002-9.8ZM-100-48.8L-100-48.8L-96.5-48.8Q-87.39999999999999-48.8 -87.39999999999999-39.9L-87.39999999999999-39.9L-87.39999999999999-8.8Q-87.39999999999999 0 -96.5 0L-96.5 0L-100 0Q-104.89999999999999 0 -106.19999999999999-3.9L-106.19999999999999-3.9L-106.19999999999999 13.8L-115.19999999999999 13.8L-115.19999999999999-48.8L-106.19999999999999-48.8L-106.19999999999999-44.9Q-104.89999999999999-48.8 -100-48.8ZM-96.39999999999999-10.2L-96.39999999999999-10.2L-96.39999999999999-38.6Q-96.39999999999999-40.4 -97-40.95Q-97.6-41.5 -99.39999999999999-41.5L-99.39999999999999-41.5L-102.89999999999999-41.5Q-104.69999999999999-41.5 -105.44999999999999-40.7Q-106.19999999999999-39.9 -106.19999999999999-38L-106.19999999999999-38L-106.19999999999999-10.8Q-106.19999999999999-8.9 -105.44999999999999-8.1Q-104.69999999999999-7.3 -102.89999999999999-7.3L-102.89999999999999-7.3L-99.39999999999999-7.3Q-97.6-7.3 -97-7.85Q-96.39999999999999-8.4 -96.39999999999999-10.2ZM-70.1-48.8L-70.1-48.8L-60.3-48.8Q-50.89999999999999-48.8 -50.89999999999999-39.9L-50.89999999999999-39.9L-50.89999999999999-21.6L-70.6-21.6L-70.6-10Q-70.6-8.3 -70-7.7Q-69.39999999999999-7.1 -67.6-7.1L-67.6-7.1L-62.99999999999999-7.1Q-61.199999999999996-7.1 -60.599999999999994-7.7Q-59.99999999999999-8.3 -59.99999999999999-10.1L-59.99999999999999-10.1L-59.99999999999999-14.1L-51.199999999999996-14.1L-51.199999999999996-8.8Q-51.199999999999996 0 -60.49999999999999 0L-60.49999999999999 0L-70.1 0Q-79.39999999999999 0 -79.39999999999999-8.8L-79.39999999999999-8.8L-79.39999999999999-39.9Q-79.39999999999999-48.8 -70.1-48.8ZM-70.6-38.8L-70.6-28.2L-59.8-28.2L-59.8-38.8Q-59.8-40.5 -60.349999999999994-41.1Q-60.89999999999999-41.7 -62.699999999999996-41.7L-62.699999999999996-41.7L-67.6-41.7Q-69.39999999999999-41.7 -70-41.1Q-70.6-40.5 -70.6-38.8L-70.6-38.8ZM-34.099999999999994-48.8L-34.099999999999994-48.8L-24.299999999999994-48.8Q-14.899999999999991-48.8 -14.899999999999991-39.9L-14.899999999999991-39.9L-14.899999999999991-21.6L-34.599999999999994-21.6L-34.599999999999994-10Q-34.599999999999994-8.3 -33.99999999999999-7.7Q-33.39999999999999-7.1 -31.599999999999994-7.1L-31.599999999999994-7.1L-26.999999999999993-7.1Q-25.199999999999996-7.1 -24.599999999999994-7.7Q-23.999999999999993-8.3 -23.999999999999993-10.1L-23.999999999999993-10.1L-23.999999999999993-14.1L-15.199999999999996-14.1L-15.199999999999996-8.8Q-15.199999999999996 0 -24.499999999999993 0L-24.499999999999993 0L-34.099999999999994 0Q-43.39999999999999 0 -43.39999999999999-8.8L-43.39999999999999-8.8L-43.39999999999999-39.9Q-43.39999999999999-48.8 -34.099999999999994-48.8ZM-34.599999999999994-38.8L-34.599999999999994-28.2L-23.799999999999994-28.2L-23.799999999999994-38.8Q-23.799999999999994-40.5 -24.349999999999994-41.1Q-24.899999999999995-41.7 -26.699999999999996-41.7L-26.699999999999996-41.7L-31.599999999999994-41.7Q-33.39999999999999-41.7 -33.99999999999999-41.1Q-34.599999999999994-40.5 -34.599999999999994-38.8L-34.599999999999994-38.8ZM 11.000000000000007-45L 11.000000000000007-66.9L 20.000000000000007-66.9L 20.000000000000007 0L 11.000000000000007 0L 11.000000000000007-3.9Q 9.700000000000006 0  4.800000000000004 0L 4.800000000000004 0L 1.2000000000000064 0Q-7.7999999999999945 0 -7.7999999999999945-8.8L-7.7999999999999945-8.8L-7.7999999999999945-40Q-7.7999999999999945-48.9  1.2000000000000064-48.9L 1.2000000000000064-48.9L 4.800000000000004-48.9Q 9.700000000000006-48.9  11.000000000000007-45L 11.000000000000007-45ZM 4.200000000000006-7.3L 4.200000000000006-7.3L 7.700000000000006-7.3Q 9.500000000000007-7.3  10.250000000000007-8.1Q 11.000000000000007-8.9  11.000000000000007-10.8L 11.000000000000007-10.8L 11.000000000000007-38.1Q 11.000000000000007-40  10.250000000000007-40.8Q 9.500000000000007-41.6  7.700000000000006-41.6L 7.700000000000006-41.6L 4.200000000000006-41.6Q 2.4000000000000057-41.6  1.800000000000006-41Q 1.2000000000000064-40.4  1.2000000000000064-38.7L 1.2000000000000064-38.7L 1.2000000000000064-10.2Q 1.2000000000000064-8.4  1.800000000000006-7.85Q 2.4000000000000057-7.3  4.200000000000006-7.3ZM 52.50000000000001-58.1L 43.10000000000001-58.1L 43.10000000000001-67L 52.50000000000001-67L 52.50000000000001-58.1ZM 52.300000000000004-48.8L 52.300000000000004 0L 43.300000000000004 0L 43.300000000000004-48.8L 52.300000000000004-48.8ZM 76.30000000000001-48.8L 76.30000000000001-48.8L 79.80000000000001-48.8Q 88.9-48.8  88.9-39.9L 88.9-39.9L 88.9 0L 79.9 0L 79.9-38.6Q 79.9-40.4  79.30000000000001-40.95Q 78.7-41.5  76.9-41.5L 76.9-41.5L 73.4-41.5Q 71.60000000000001-41.5  70.85000000000001-40.7Q 70.10000000000001-39.9  70.10000000000001-38L 70.10000000000001-38L 70.10000000000001 0L 61.1 0L 61.1-48.8L 70.10000000000001-48.8L 70.10000000000001-44.9Q 71.4-48.8  76.30000000000001-48.8ZM 114.90000000000002-66.9L 114.90000000000002-59.3L 110.70000000000002-59.3Q 108.90000000000002-59.3  108.30000000000001-58.75Q 107.70000000000002-58.2  107.70000000000002-56.4L 107.70000000000002-56.4L 107.70000000000002-48.8L 114.90000000000002-48.8L 114.90000000000002-41.5L 107.70000000000002-41.5L 107.70000000000002 0L 98.70000000000002 0L 98.70000000000002-41.5L 93.80000000000001-41.5L 93.80000000000001-48.8L 98.70000000000002-48.8L 98.70000000000002-58.1Q 98.70000000000002-66.9  108.00000000000001-66.9L 108.00000000000001-66.9L 114.90000000000002-66.9ZM 128.5-48.8L 128.5-48.8L 139.20000000000002-48.8Q 148.5-48.8  148.5-39.9L 148.5-39.9L 148.5-8.8Q 148.5 0  139.20000000000002 0L 139.20000000000002 0L 128.5 0Q 119.30000000000001 0  119.30000000000001-8.8L 119.30000000000001-8.8L 119.30000000000001-39.9Q 119.30000000000001-48.8  128.5-48.8ZM 139.6-10.1L 139.6-10.1L 139.6-38.7Q 139.6-40.5  139-41.1Q 138.4-41.7  136.6-41.7L 136.6-41.7L 131.1-41.7Q 129.3-41.7  128.75-41.1Q 128.20000000000002-40.5  128.20000000000002-38.7L 128.20000000000002-38.7L 128.20000000000002-10.1Q 128.20000000000002-8.3  128.75-7.7Q 129.3-7.1  131.1-7.1L 131.1-7.1L 136.6-7.1Q 138.4-7.1  139-7.7Q 139.6-8.3  139.6-10.1Z"></path><path text="manager" text-anchor="middle" font-size="100" letter-spacing="0" side="left" offset="0.5" dx="0" dy="0" space="preserve" href="" font-family="Teko" font-scale="contain" transform="matrix(1.3874475955963135, 0, 0, 1.3874475955963135, 254.6819305419922, 464)" x="0" y="0" fill="#076cf3" data-fl-textpath="" id="_roHAh7wUbk1G41yQJhl1q" font-weight="400" font-style="normal" data-uid="o_emk94ih69_7" d="M-91.15-48.8L-91.15-48.8L-87.65-48.8Q-78.65-48.8 -78.65-39.9L-78.65-39.9L-78.65 0L-87.65 0L-87.65-38.6Q-87.65-40.4 -88.20000000000002-40.95Q-88.75000000000001-41.5 -90.55000000000001-41.5L-90.55000000000001-41.5L-94.15-41.5Q-97.35000000000001-41.5 -97.35000000000001-38L-97.35000000000001-38L-97.35000000000001 0L-106.35000000000001 0L-106.35000000000001-38.6Q-106.35000000000001-40.4 -106.95000000000002-40.95Q-107.55000000000001-41.5 -109.35000000000001-41.5L-109.35000000000001-41.5L-112.85000000000001-41.5Q-114.65-41.5 -115.4-40.7Q-116.15-39.9 -116.15-38L-116.15-38L-116.15 0L-125.15 0L-125.15-48.8L-116.15-48.8L-116.15-44.9Q-114.85000000000001-48.8 -109.95000000000002-48.8L-109.95000000000002-48.8L-106.45000000000002-48.8Q-100.05000000000001-48.8 -98.15-44.3L-98.15-44.3Q-96.95000000000002-48.8 -91.15-48.8ZM-52.15-44.9L-52.15-48.8L-43.15-48.8L-43.15 0L-52.15 0L-52.15-3.9Q-53.45 0 -58.35 0L-58.35 0L-61.95 0Q-70.95 0 -70.95-8.8L-70.95-8.8L-70.95-39.9Q-70.95-48.8 -61.95-48.8L-61.95-48.8L-58.35-48.8Q-53.45-48.8 -52.15-44.9L-52.15-44.9ZM-58.95-7.3L-58.95-7.3L-55.45-7.3Q-53.65-7.3 -52.9-8.1Q-52.15-8.9 -52.15-10.8L-52.15-10.8L-52.15-38Q-52.15-39.9 -52.9-40.7Q-53.65-41.5 -55.45-41.5L-55.45-41.5L-58.95-41.5Q-60.75-41.5 -61.35-40.95Q-61.95-40.4 -61.95-38.6L-61.95-38.6L-61.95-10.2Q-61.95-8.4 -61.35-7.85Q-60.75-7.3 -58.95-7.3ZM-19.15-48.8L-19.15-48.8L-15.649999999999999-48.8Q-6.549999999999997-48.8 -6.549999999999997-39.9L-6.549999999999997-39.9L-6.549999999999997 0L-15.55 0L-15.55-38.6Q-15.55-40.4 -16.15-40.95Q-16.75-41.5 -18.55-41.5L-18.55-41.5L-22.05-41.5Q-23.85-41.5 -24.6-40.7Q-25.35-39.9 -25.35-38L-25.35-38L-25.35 0L-34.35 0L-34.35-48.8L-25.35-48.8L-25.35-44.9Q-24.05-48.8 -19.15-48.8ZM 20.35-44.9L 20.35-48.8L 29.35-48.8L 29.35 0L 20.35 0L 20.35-3.9Q 19.05 0  14.149999999999999 0L 14.149999999999999 0L 10.55 0Q 1.5499999999999998 0  1.5499999999999998-8.8L 1.5499999999999998-8.8L 1.5499999999999998-39.9Q 1.5499999999999998-48.8  10.55-48.8L 10.55-48.8L 14.149999999999999-48.8Q 19.05-48.8  20.35-44.9L 20.35-44.9ZM 13.55-7.3L 13.55-7.3L 17.05-7.3Q 18.85-7.3  19.6-8.1Q 20.35-8.9  20.35-10.8L 20.35-10.8L 20.35-38Q 20.35-39.9  19.6-40.7Q 18.85-41.5  17.05-41.5L 17.05-41.5L 13.55-41.5Q 11.75-41.5  11.15-40.95Q 10.55-40.4  10.55-38.6L 10.55-38.6L 10.55-10.2Q 10.55-8.4  11.15-7.85Q 11.75-7.3  13.55-7.3ZM 56.35-44.9L 56.35-48.8L 65.35-48.8L 65.35 5Q 65.35 13.8  55.95 13.8L 55.95 13.8L 39.25 13.8L 39.25 6.7L 53.35 6.7Q 55.15 6.7  55.75 6.1Q 56.35 5.5  56.35 3.8L 56.35 3.8L 56.35-4.5Q 55.05-0.6  50.15-0.6L 50.15-0.6L 46.55-0.6Q 37.55-0.6  37.55-9.5L 37.55-9.5L 37.55-39.9Q 37.55-48.8  46.55-48.8L 46.55-48.8L 50.15-48.8Q 55.05-48.8  56.35-44.9L 56.35-44.9ZM 49.55-7.9L 49.55-7.9L 53.05-7.9Q 54.85-7.9  55.6-8.7Q 56.35-9.5  56.35-11.4L 56.35-11.4L 56.35-38Q 56.35-39.9  55.6-40.7Q 54.85-41.5  53.05-41.5L 53.05-41.5L 49.55-41.5Q 47.75-41.5  47.15-40.95Q 46.55-40.4  46.55-38.6L 46.55-38.6L 46.55-10.8Q 46.55-9.1  47.15-8.5Q 47.75-7.9  49.55-7.9ZM 83.25-48.8L 83.25-48.8L 93.05-48.8Q 102.45-48.8  102.45-39.9L 102.45-39.9L 102.45-21.6L 82.75-21.6L 82.75-10Q 82.75-8.3  83.35-7.7Q 83.95-7.1  85.75-7.1L 85.75-7.1L 90.35-7.1Q 92.15-7.1  92.75-7.7Q 93.35-8.3  93.35-10.1L 93.35-10.1L 93.35-14.1L 102.15-14.1L 102.15-8.8Q 102.15 0  92.85 0L 92.85 0L 83.25 0Q 73.95 0  73.95-8.8L 73.95-8.8L 73.95-39.9Q 73.95-48.8  83.25-48.8ZM 82.75-38.8L 82.75-28.2L 93.55-28.2L 93.55-38.8Q 93.55-40.5  93-41.1Q 92.45-41.7  90.65-41.7L 90.65-41.7L 85.75-41.7Q 83.95-41.7  83.35-41.1Q 82.75-40.5  82.75-38.8L 82.75-38.8ZM 127.05-48.9L 127.05-48.9L 129.05-48.9L 129.05-41.1L 125.45-41.1Q 119.15-41.1  119.15-33.7L 119.15-33.7L 119.15 0L 110.15 0L 110.15-48.8L 119.15-48.8L 119.15-42.8Q 119.95-45.4  122-47.15Q 124.05-48.9  127.05-48.9Z"></path><g transform="matrix(2.251546621322632, 0, 0, 2.251546621322632, 143.42153930664062, 31.180946350097656)" fill="#076cf3" data-uid="o_emk94ih69_8"><path d="M47.495,62.192c-5.268-2.254-10.214-4.752-14.785-7.483c-1.702,1.702-4.004,2.764-6.545,2.764  c-0.526,0-1.033-0.075-1.537-0.162c-3.598,6.751-5.429,13.429-5.474,19.973c1.661,2.097,3.509,4.018,5.518,5.743  c7.979-2.768,16.039-7.675,23.873-14.618c-0.739-1.403-1.196-2.986-1.196-4.696C47.349,63.191,47.42,62.691,47.495,62.192z" transform="matrix(1, 0, 0, 1, 0, 0)" fill="#076cf3" data-uid="o_emk94ih69_9"></path><path d="M16.695,47.617c0-1.435,0.312-2.789,0.844-4.02c-2.16-1.965-4.168-3.995-5.998-6.09C10.395,41.459,9.771,45.651,9.771,50  c0,7.493,1.848,14.523,5.064,20.638c0.851-5.139,2.673-10.31,5.366-15.43C18.079,53.399,16.695,50.688,16.695,47.617z" transform="matrix(1, 0, 0, 1, 0, 0)" fill="#076cf3" data-uid="o_emk94ih69_10"></path><path d="M48.771,16.689c2.771,0,5.245,1.268,6.978,3.249c4.172-2.608,8.57-5.103,13.221-7.439C63.315,9.296,56.862,7.47,50.001,7.47  c-7.941,0-15.322,2.465-21.558,6.662c4.562,1.859,8.945,3.885,13.179,6.023C43.359,18.052,45.903,16.689,48.771,16.689z" transform="matrix(1, 0, 0, 1, 0, 0)" fill="#076cf3" data-uid="o_emk94ih69_11"></path><path d="M57.771,29.458c5.068,3.328,9.793,6.843,14.107,10.518c3.301-5.372,6.357-11.074,9.131-17.068  c-2.145-2.739-4.633-5.155-7.352-7.253c-5.566,2.684-10.807,5.576-15.686,8.642c0.162,0.726,0.27,1.472,0.27,2.248  C58.241,27.565,58.048,28.531,57.771,29.458z" transform="matrix(1, 0, 0, 1, 0, 0)" fill="#076cf3" data-uid="o_emk94ih69_12"></path><path d="M48.771,36.398c-1.918,0-3.7-0.605-5.193-1.631c-3.261,2.766-6.253,5.62-8.929,8.56c0.61,1.303,0.984,2.746,0.984,4.29  c0,1.158-0.228,2.255-0.582,3.288c4.347,2.588,9.021,4.989,14.048,7.134c1.717-2.522,4.526-4.184,7.718-4.184  c1.596,0,3.08,0.452,4.402,1.183c2.875-3.54,5.639-7.288,8.25-11.267c-4.232-3.625-8.889-7.101-13.904-10.39  C53.841,35.235,51.438,36.398,48.771,36.398z" transform="matrix(1, 0, 0, 1, 0, 0)" fill="#076cf3" data-uid="o_emk94ih69_13"></path><path d="M72.935,46.858c-2.637,3.978-5.414,7.741-8.311,11.292c1.047,1.584,1.664,3.498,1.664,5.562  c0,0.118-0.031,0.229-0.035,0.346c6.35,1.805,13.016,3.28,19.961,4.37c0.615-1.346,1.162-2.727,1.643-4.146  C83.94,58.279,78.933,52.418,72.935,46.858z" transform="matrix(1, 0, 0, 1, 0, 0)" fill="#076cf3" data-uid="o_emk94ih69_14"></path><path d="M56.817,73.564c-1.951,0-3.766-0.619-5.275-1.676c-7.334,6.49-14.89,11.322-22.45,14.396  c6.099,3.936,13.24,6.245,20.909,6.245c14.316,0,26.854-7.932,33.982-19.841c-6.555-1.096-12.859-2.541-18.898-4.271  C63.474,71.47,60.392,73.564,56.817,73.564z" transform="matrix(1, 0, 0, 1, 0, 0)" fill="#076cf3" data-uid="o_emk94ih69_15"></path><path d="M83.995,27.328c-2.65,5.503-5.533,10.761-8.623,15.738C80.8,48.054,85.509,53.283,89.39,58.66  c0.549-2.796,0.84-5.691,0.84-8.66C90.229,41.655,87.923,33.896,83.995,27.328z" transform="matrix(1, 0, 0, 1, 0, 0)" fill="#076cf3" data-uid="o_emk94ih69_16"></path><path d="M31.517,39.502c2.69-2.901,5.654-5.726,8.881-8.457c-0.676-1.356-1.095-2.872-1.095-4.501c0-0.808,0.119-1.579,0.296-2.33  c-4.906-2.458-10.047-4.745-15.4-6.829c-4.651,4.118-8.391,9.335-10.902,15.263c2.033,2.55,4.37,4.999,6.93,7.359  c1.63-1.381,3.679-2.243,5.939-2.243C28.151,37.764,29.992,38.409,31.517,39.502z" transform="matrix(1, 0, 0, 1, 0, 0)" fill="#076cf3" data-uid="o_emk94ih69_17"></path><path transform="matrix(1, 0, 0, 1, 0, 0)" fill="#0c1842" data-type="circle" data-cx="25.884" data-cy="47.311" data-r="4.675" d="M25.884,47.311m-4.675,0a4.675,4.675 0 1, 0 9.35,0a4.675,4.675 0 1, 0 -9.35,0" data-uid="o_emk94ih69_18"></path><path transform="matrix(1, 0, 0, 1, 0, 0)" fill="#0c1842" data-type="circle" data-cx="48.984" data-cy="26.41" data-r="4.675" d="M48.984,26.41m-4.675,0a4.675,4.675 0 1, 0 9.35,0a4.675,4.675 0 1, 0 -9.35,0" data-uid="o_emk94ih69_19"></path><path transform="matrix(1, 0, 0, 1, 0, 0)" fill="#0c1842" data-type="circle" data-cx="56.547" data-cy="63.673" data-r="4.675" d="M56.547,63.673m-4.675,0a4.675,4.675 0 1, 0 9.35,0a4.675,4.675 0 1, 0 -9.35,0" data-uid="o_emk94ih69_20"></path></g></svg>